{"asset": {"version": "2.0", "generator": "Mini3D geometry photography session"}, "scene": 0, "scenes": [{"nodes": [0]}], "nodes": [{"mesh": 0}], "meshes": [{"primitives": [{"attributes": {"POSITION": 0, "NORMAL": 1}, "indices": 2, "material": 0}]}], "materials": [{"name": "sphere-m1-r0.30", "pbrMetallicRoughness": {"baseColorFactor": [0.55, 0.25, 0.07, 1], "metallicFactor": 1, "roughnessFactor": 0.3}}], "buffers": [{"byteLength": 120408, "uri": "data:application/octet-stream;base64,"}], "bufferViews": [{"buffer": 0, "byteOffset": 0, "byteLength": 30720}, {"buffer": 0, "byteOffset": 30720, "byteLength": 30720}, {"buffer": 0, "byteOffset": 61440, "byteLength": 58968}], "accessors": [{"bufferView": 0, "componentType": 5126, "count": 2560, "type": "VEC3", "min": [-0.5488708019256592, -0.5493831634521484, -0.550000011920929], "max": [0.5495539307594299, 0.5493831634521484, 0.550000011920929]}, {"bufferView": 1, "componentType": 5126, "count": 2560, "type": "VEC3"}, {"bufferView": 2, "componentType": 5125, "count": 14742, "type": "SCALAR"}]}