{"asset": {"version": "2.0", "generator": "Mini3D geometry photography session"}, "scene": 0, "scenes": [{"nodes": [0]}], "nodes": [{"mesh": 0}], "meshes": [{"primitives": [{"attributes": {"POSITION": 0, "NORMAL": 1}, "indices": 2, "material": 0}]}], "materials": [{"name": "stage", "pbrMetallicRoughness": {"baseColorFactor": [0.18, 0.18, 0.18, 1], "metallicFactor": 0, "roughnessFactor": 0.85}}], "buffers": [{"byteLength": 720, "uri": "data:application/octet-stream;base64,"}], "bufferViews": [{"buffer": 0, "byteOffset": 0, "byteLength": 288}, {"buffer": 0, "byteOffset": 288, "byteLength": 288}, {"buffer": 0, "byteOffset": 576, "byteLength": 144}], "accessors": [{"bufferView": 0, "componentType": 5126, "count": 24, "type": "VEC3", "min": [-0.5, -0.5, -0.5], "max": [0.5, 0.5, 0.5]}, {"bufferView": 1, "componentType": 5126, "count": 24, "type": "VEC3"}, {"bufferView": 2, "componentType": 5125, "count": 36, "type": "SCALAR"}]}